<?xml version="1.0" encoding="utf-8"?>
<!-- Generator: Adobe Illustrator 21.1.0, SVG Export Plug-In . SVG Version: 6.00 Build 0)  -->
<svg version="1.1" id="Слой_1" xmlns="http://www.w3.org/2000/svg" xmlns:xlink="http://www.w3.org/1999/xlink" x="0px" y="0px"
	 viewBox="0 0 305 120" style="enable-background:new 0 0 305 120;" xml:space="preserve">
<style type="text/css">
	.st0{fill:#68B932;}
</style>
<g>
	<path class="st0" d="M103.7,63.5c1-16-5-35-28-53c-1-1-2-1-4,0c-13,10-21,22-25,35c-11-6-25-8-44-5c-1,0-2,1-2,3c-3,20,3,38,15,51
		c20,23,53,16,58,16c4-1,8-6,11-9l0,0C95.7,90.5,102.7,77.5,103.7,63.5L103.7,63.5z M46.7,45.5v1V45.5L46.7,45.5z M46.7,46.5
		c0,0,0,0,0,1C46.7,46.5,46.7,46.5,46.7,46.5L46.7,46.5z M45.7,47.5c0,1,0,1,0,1S45.7,48.5,45.7,47.5L45.7,47.5z M45.7,48.5v1V48.5
		L45.7,48.5z M45.7,49.5c0,1,0,2-1,3C45.7,51.5,45.7,50.5,45.7,49.5L45.7,49.5z M44.7,52.5c0,1,0,1,0,2
		C44.7,53.5,44.7,53.5,44.7,52.5L44.7,52.5z M44.7,54.5c0,0,0,0,0,1C44.7,54.5,44.7,54.5,44.7,54.5L44.7,54.5z M44.7,55.5L44.7,55.5
		 M45.7,47.5h1 M67.7,97.5c-9-9-15-20-16-31l19,20v14C69.7,99.5,68.7,98.5,67.7,97.5L67.7,97.5z M54.7,40.5l16,16v21l-20-20v-1
		C51.7,50.5,52.7,45.5,54.7,40.5L54.7,40.5z M89.7,34.5l-13,13v-28C82.7,24.5,86.7,29.5,89.7,34.5L89.7,34.5z M92.7,40.5
		c3,6,4,11,5,17l-21,20v-21L92.7,40.5L92.7,40.5z M70.7,19.5v28l-13-13C61.7,29.5,65.7,23.5,70.7,19.5L70.7,19.5z M76.7,100.5v-14
		l20-20C94.7,79.5,87.7,90.5,76.7,100.5L76.7,100.5z"/>
	<path class="st0" d="M121.7,0.5h-6c-1,0-1,1-1,1v117c0,0,0,1,1,1h6c1,0,1-1,1-1V1.5C122.7,1.5,122.7,0.5,121.7,0.5L121.7,0.5z"/>
	<path class="st0" d="M143.7,17.5v9h17v9h-17v17h-8v-43h29v8H143.7z M182.7,35.5h-5v17h-8v-43h14c3,0,6,1,8,2c4,2,7,6,7,11
		s-3,9-8,11l9,19h-9L182.7,35.5z M213.7,17.5v9h17v9h-17v8h20v9h-29v-43h29v8H213.7z M251.6,52.5c-7,0-13-4-13-12v-1h8v1
		c0,3,2,4,5,4s6-2,6-4c0-3-3-5-6-6c-2,0-4,0-6-1c-5-2-7-6-7-11c0-8,6-13,13-13c8,0,14,5,14,12v1h-9v-1c0-3-2-4-5-4s-5,2-5,5s3,4,5,4
		s5,1,7,2c4,2,7,6,7,12C265.6,47.5,259.6,52.5,251.6,52.5L251.6,52.5z M295.6,35.5h-15v17h-9v-43h9v17h15v-17h9v43h-9V35.5z
		 M177.7,17.5v9h6c3,0,7-1,7-4s-4-5-7-5H177.7z"/>
	<path class="st0" d="M160.7,87.5c3,1,5,3,6,5s1,4,1,5c0,10-7,14-16,14h-16v-48h16c2,0,6,1,8,2c5,2,8,6,8,12
		C167.7,82.5,164.7,85.5,160.7,87.5L160.7,87.5z M193.7,111.5c-9,0-18-6-18-16v-32h9v32c0,6,4,8,9,8s10-2,10-8v-32h8v32
		C211.7,106.5,203.7,111.5,193.7,111.5L193.7,111.5z M236.6,91.5h-6v20h-9v-48h16c3,0,6,1,8,2c5,2,8,6,8,12s-3,11-9,13l10,21h-9
		L236.6,91.5z M296.6,107.5c-4,3-8,4-13,4c-14,0-23-10-23-24s10-25,24-25c6,0,12,3,17,7v1l-6,5l0,0c-3-3-7-4-11-4c-9,0-15,7-15,16
		c0,10,5,16,15,16c5,0,9-2,12-5v-7h-13v-8h21v28h-7L296.6,107.5z M143.7,71.5v12h8c3,0,7-2,7-6s-3-6-7-6H143.7z M143.7,91.5v11h8
		c4,0,8-1,8-5c0-5-4-6-8-6H143.7z M230.7,71.5v12h7c4,0,8-2,8-6s-4-6-8-6H230.7z"/>
</g>
</svg>
